<?xml version="1.0" encoding="UTF-8"?>
<svg version="1.1" xmlns="http://www.w3.org/2000/svg" width="128" height="128">
<path d="M0 0 C40.92 0 81.84 0 124 0 C124 1.32 124 2.64 124 4 C125.32 4 126.64 4 128 4 C128 16.21 128 28.42 128 41 C114.8 41 101.6 41 88 41 C88 62.12 88 83.24 88 105 C73.48 105 58.96 105 44 105 C44 103.68 44 102.36 44 101 C42.68 101 41.36 101 40 101 C40 81.2 40 61.4 40 41 C28.12 41 16.24 41 4 41 C4 39.68 4 38.36 4 37 C2.68 36.67 1.36 36.34 0 36 C0 24.12 0 12.24 0 0 Z " fill="#010103" transform="translate(0,11)"/>
<path d="M0 0 C11.88 0 23.76 0 36 0 C36 9.57 36 19.14 36 29 C24.12 29 12.24 29 0 29 C0 19.43 0 9.86 0 0 Z " fill="#5F69D9" transform="translate(44,79)"/>
<path d="M0 0 C11.88 0 23.76 0 36 0 C36 9.24 36 18.48 36 28 C24.12 28 12.24 28 0 28 C0 18.76 0 9.52 0 0 Z " fill="#5F69DA" transform="translate(44,47)"/>
<path d="M0 0 C11.88 0 23.76 0 36 0 C36 9.24 36 18.48 36 28 C24.12 28 12.24 28 0 28 C0 18.76 0 9.52 0 0 Z " fill="#5F69DA" transform="translate(84,15)"/>
<path d="M0 0 C11.88 0 23.76 0 36 0 C36 9.24 36 18.48 36 28 C24.12 28 12.24 28 0 28 C0 18.76 0 9.52 0 0 Z " fill="#5F69DA" transform="translate(44,15)"/>
<path d="M0 0 C11.88 0 23.76 0 36 0 C36 9.24 36 18.48 36 28 C24.12 28 12.24 28 0 28 C0 18.76 0 9.52 0 0 Z " fill="#5F69DA" transform="translate(4,15)"/>
</svg>
